0
SECTION
2
HEADER
9
$INSUNITS
70
4
9
$ACADVER
1
AC1014
9
$HANDSEED
5
FFFF
0
ENDSEC
0
SECTION
2
TABLES
0
TABLE
2
VPORT
5
8
100
AcDbSymbolTable
0
ENDTAB
0
TABLE
2
LTYPE
5
5
100
AcDbSymbolTable
0
LTYPE
5
14
100
AcDbSymbolTableRecord
100
AcDbLinetypeTableRecord
2
BYBLOCK
70
0
0
LTYPE
5
15
100
AcDbSymbolTableRecord
100
AcDbLinetypeTableRecord
2
BYLAYER
70
0
0
ENDTAB
0
TABLE
2
LAYER
5
2
100
AcDbSymbolTable
70
2
0
LAYER
5
50
100
AcDbSymbolTableRecord
100
AcDbLayerTableRecord
2
0
70
0
6
CONTINUOUS
0
ENDTAB
0
TABLE
2
STYLE
5
3
100
AcDbSymbolTable
70
1
0
STYLE
5
11
100
AcDbSymbolTableRecord
100
AcDbTextStyleTableRecord
2
STANDARD
70
0
0
ENDTAB
0
TABLE
2
VIEW
5
6
100
AcDbSymbolTable
70
0
0
ENDTAB
0
TABLE
2
UCS
5
7
100
AcDbSymbolTable
70
0
0
ENDTAB
0
TABLE
2
APPID
5
9
100
AcDbSymbolTable
70
2
0
APPID
5
12
100
AcDbSymbolTableRecord
100
AcDbRegAppTableRecord
2
ACAD
70
0
0
ENDTAB
0
TABLE
2
DIMSTYLE
5
A
100
AcDbSymbolTable
70
1
0
ENDTAB
0
TABLE
2
BLOCK_RECORD
5
1
100
AcDbSymbolTable
70
1
0
BLOCK_RECORD
5
1F
100
AcDbSymbolTableRecord
100
AcDbBlockTableRecord
2
*MODEL_SPACE
0
BLOCK_RECORD
5
1B
100
AcDbSymbolTableRecord
100
AcDbBlockTableRecord
2
*PAPER_SPACE
0
ENDTAB
0
ENDSEC
0
SECTION
2
BLOCKS
0
BLOCK
5
20
100
AcDbEntity
100
AcDbBlockBegin
2
*MODEL_SPACE
0
ENDBLK
5
21
100
AcDbEntity
100
AcDbBlockEnd
0
BLOCK
5
1C
100
AcDbEntity
100
AcDbBlockBegin
2
*PAPER_SPACE
0
ENDBLK
5
1D
100
AcDbEntity
100
AcDbBlockEnd
0
ENDSEC
0
SECTION
2
ENTITIES
0
LWPOLYLINE
5
100
100
AcDbEntity
8
0
100
AcDbPolyline
90
20
70
1
43
0.0
10
25.359650000000002
20
21.013100000000001
10
25.359650000000002
20
20.012699999999999
10
24.559010000000001
20
20.012699999999999
10
24.559010000000001
20
16.9148
10
25.359650000000002
20
16.9148
10
25.359650000000002
20
11.113289999999999
10
24.559010000000001
20
11.113289999999999
10
24.559010000000001
20
8.0127300000000012
10
25.359650000000002
20
8.0127300000000012
10
25.359650000000002
20
7.0136400000000005
10
39.359200000000001
20
7.0136400000000005
10
39.359200000000001
20
8.0127300000000012
10
40.15979999999999
20
8.0127300000000012
10
40.15979999999999
20
11.113289999999999
10
39.359200000000001
20
11.113289999999999
10
39.359200000000001
20
16.9148
10
40.15979999999999
20
16.9148
10
40.15979999999999
20
20.012699999999999
10
39.359200000000001
20
20.012699999999999
10
39.359200000000001
20
21.013100000000001
0
LWPOLYLINE
5
101
100
AcDbEntity
8
0
100
AcDbPolyline
90
20
70
1
43
0.0
10
43.608999999999995
20
8.0127300000000012
10
44.409700000000001
20
8.0127300000000012
10
44.409700000000001
20
7.0136400000000005
10
58.408999999999992
20
7.0136400000000005
10
58.408999999999992
20
8.0127300000000012
10
59.209800000000001
20
8.0127300000000012
10
59.209800000000001
20
11.113289999999999
10
58.408999999999992
20
11.113289999999999
10
58.408999999999992
20
16.9148
10
59.209800000000001
20
16.9148
10
59.209800000000001
20
20.012699999999999
10
58.408999999999992
20
20.012699999999999
10
58.408999999999992
20
21.013100000000001
10
44.409700000000001
20
21.013100000000001
10
44.409700000000001
20
20.012699999999999
10
43.608999999999995
20
20.012699999999999
10
43.608999999999995
20
16.9148
10
44.409700000000001
20
16.9148
10
44.409700000000001
20
11.113289999999999
10
43.608999999999995
20
11.113289999999999
0
LWPOLYLINE
5
102
100
AcDbEntity
8
0
100
AcDbPolyline
90
20
70
1
43
0.0
10
77.458999999999989
20
20.012699999999999
10
77.458999999999989
20
21.013100000000001
10
63.459699999999998
20
21.013100000000001
10
63.459699999999998
20
20.012699999999999
10
62.658900000000003
20
20.012699999999999
10
62.658900000000003
20
16.9148
10
63.459699999999998
20
16.9148
10
63.459699999999998
20
11.113289999999999
10
62.658900000000003
20
11.113289999999999
10
62.658900000000003
20
8.0127300000000012
10
63.459699999999998
20
8.0127300000000012
10
63.459699999999998
20
7.0136400000000005
10
77.458999999999989
20
7.0136400000000005
10
77.458999999999989
20
8.0127300000000012
10
78.259799999999998
20
8.0127300000000012
10
78.259799999999998
20
11.113289999999999
10
77.458999999999989
20
11.113289999999999
10
77.458999999999989
20
16.9148
10
78.259799999999998
20
16.9148
10
78.259799999999998
20
20.012699999999999
0
LWPOLYLINE
5
103
100
AcDbEntity
8
0
100
AcDbPolyline
90
20
70
1
43
0.0
10
39.359200000000001
20
35.963500000000003
10
40.15979999999999
20
35.963500000000003
10
40.15979999999999
20
39.062700000000007
10
39.359200000000001
20
39.062700000000007
10
39.359200000000001
20
40.062999999999995
10
25.359650000000002
20
40.062999999999995
10
25.359650000000002
20
39.062700000000007
10
24.559010000000001
20
39.062700000000007
10
24.559010000000001
20
35.963500000000003
10
25.359650000000002
20
35.963500000000003
10
25.359650000000002
20
30.1633
10
24.559010000000001
20
30.1633
10
24.559010000000001
20
27.0627
10
25.359650000000002
20
27.0627
10
25.359650000000002
20
26.063600000000001
10
39.359200000000001
20
26.063600000000001
10
39.359200000000001
20
27.0627
10
40.15979999999999
20
27.0627
10
40.15979999999999
20
30.1633
10
39.359200000000001
20
30.1633
0
LWPOLYLINE
5
104
100
AcDbEntity
8
0
100
AcDbPolyline
90
20
70
1
43
0.0
10
43.608999999999995
20
35.963500000000003
10
44.409700000000001
20
35.963500000000003
10
44.409700000000001
20
30.1633
10
43.608999999999995
20
30.1633
10
43.608999999999995
20
27.0627
10
44.409700000000001
20
27.0627
10
44.409700000000001
20
26.063600000000001
10
58.408999999999992
20
26.063600000000001
10
58.408999999999992
20
27.0627
10
59.209800000000001
20
27.0627
10
59.209800000000001
20
30.1633
10
58.408999999999992
20
30.1633
10
58.408999999999992
20
35.963500000000003
10
59.209800000000001
20
35.963500000000003
10
59.209800000000001
20
39.062700000000007
10
58.408999999999992
20
39.062700000000007
10
58.408999999999992
20
40.062999999999995
10
44.409700000000001
20
40.062999999999995
10
44.409700000000001
20
39.062700000000007
10
43.608999999999995
20
39.062700000000007
0
LWPOLYLINE
5
105
100
AcDbEntity
8
0
100
AcDbPolyline
90
20
70
1
43
0.0
10
62.658900000000003
20
39.062700000000007
10
62.658900000000003
20
35.963500000000003
10
63.459699999999998
20
35.963500000000003
10
63.459699999999998
20
30.1633
10
62.658900000000003
20
30.1633
10
62.658900000000003
20
27.0627
10
63.459699999999998
20
27.0627
10
63.459699999999998
20
26.063600000000001
10
77.458999999999989
20
26.063600000000001
10
77.458999999999989
20
27.0627
10
78.259799999999998
20
27.0627
10
78.259799999999998
20
30.1633
10
77.458999999999989
20
30.1633
10
77.458999999999989
20
35.963500000000003
10
78.259799999999998
20
35.963500000000003
10
78.259799999999998
20
39.062700000000007
10
77.458999999999989
20
39.062700000000007
10
77.458999999999989
20
40.062999999999995
10
63.459699999999998
20
40.062999999999995
10
63.459699999999998
20
39.062700000000007
0
LWPOLYLINE
5
106
100
AcDbEntity
8
0
100
AcDbPolyline
90
4
70
1
43
0.0
10
25.000001187436283
20
62.84000298473984
10
78.000001162290573
20
62.84000298473984
10
78.000001162290573
20
45.000000670552254
10
25.000001187436283
20
45.000000670552254
0
CIRCLE
5
107
100
AcDbEntity
8
0
100
AcDbCircle
10
-2.5
20
65.340000000000003
30
0
40
1.5000000000000009
210
0
220
0
230
1
0
CIRCLE
5
108
100
AcDbEntity
8
0
100
AcDbCircle
10
85.660000000000011
20
65.340000000000003
30
0
40
1.5000000000000027
210
0
220
0
230
1
0
CIRCLE
5
109
100
AcDbEntity
8
0
100
AcDbCircle
10
85.660000000000011
20
-2.5
30
0
40
1.5000000000000067
210
0
220
0
230
1
0
CIRCLE
5
110
100
AcDbEntity
8
0
100
AcDbCircle
10
-2.500000037252903
20
-2.500000037252903
30
0
40
1.5000000000000002
210
0
220
0
230
1
0
LWPOLYLINE
5
111
100
AcDbEntity
8
0
100
AcDbPolyline
90
12
70
1
43
0.0
10
-6.0000001033768058
20
-6.0000001033768058
10
-6.0000001033768058
20
68.840003088116646
10
2.5006507792993222
20
68.840003088116646
10
2.5006507792993222
20
62.84000298473984
10
0
20
62.84000298473984
10
0
20
24.840002984739836
10
21
20
24.840002984739836
10
21
20
62.84000298473984
10
18.50667066542368
20
62.84000298473984
10
18.50667066542368
20
68.840003088116646
10
89.160004053264856
20
68.840003088116646
10
89.160004053264856
20
-6.0000001033768058
0
ENDSEC
0
SECTION
2
OBJECTS
0
DICTIONARY
5
C
100
AcDbDictionary
3
ACAD_GROUP
350
D
3
ACAD_MLINESTYLE
350
17
0
DICTIONARY
5
D
100
AcDbDictionary
0
DICTIONARY
5
1A
330
C
100
AcDbDictionary
0
DICTIONARY
5
17
100
AcDbDictionary
0
ENDSEC
0
EOF
